<mxfile host="app.diagrams.net" modified="2023-12-17T17:41:52.500Z" agent="Mozilla/5.0 (Windows NT 10.0; Win64; x64) AppleWebKit/537.36 (KHTML, like Gecko) Chrome/120.0.0.0 Safari/537.36" etag="NWwa7V-n3a_2wIXndqDr" version="22.1.11" type="device">
  <diagram name="PÃ¡gina-1" id="dtIwH4OULCvZVeHjMCSd">
    <mxGraphModel dx="1434" dy="772" grid="1" gridSize="10" guides="1" tooltips="1" connect="1" arrows="1" fold="1" page="1" pageScale="1" pageWidth="827" pageHeight="1169" math="0" shadow="0">
      <root>
        <mxCell id="0" />
        <mxCell id="1" parent="0" />
        <mxCell id="G5pYT-L4DVX6QJ-RwEJ_-51" value="" style="rounded=0;whiteSpace=wrap;html=1;fillColor=#f5f5f5;fontColor=#333333;strokeColor=#666666;" vertex="1" parent="1">
          <mxGeometry x="89.5" y="355" width="410" height="610" as="geometry" />
        </mxCell>
        <mxCell id="G5pYT-L4DVX6QJ-RwEJ_-53" value="" style="shape=flexArrow;endArrow=classic;startArrow=classic;html=1;rounded=0;" edge="1" parent="1">
          <mxGeometry width="100" height="100" relative="1" as="geometry">
            <mxPoint x="539.5" y="360" as="sourcePoint" />
            <mxPoint x="539.5" y="960" as="targetPoint" />
          </mxGeometry>
        </mxCell>
        <mxCell id="G5pYT-L4DVX6QJ-RwEJ_-55" value="42 U de alto" style="rounded=0;whiteSpace=wrap;html=1;fillColor=none;strokeColor=none;" vertex="1" parent="1">
          <mxGeometry x="540" y="555" width="60" height="210" as="geometry" />
        </mxCell>
        <mxCell id="G5pYT-L4DVX6QJ-RwEJ_-56" value="&lt;h1&gt;Chasis (10U)&lt;/h1&gt;" style="rounded=0;whiteSpace=wrap;html=1;fillColor=#ffe6cc;strokeColor=#d79b00;" vertex="1" parent="1">
          <mxGeometry x="99.5" y="405" width="390" height="140" as="geometry" />
        </mxCell>
        <mxCell id="G5pYT-L4DVX6QJ-RwEJ_-85" value="&lt;h1&gt;Chasis (10U)&lt;/h1&gt;" style="rounded=0;whiteSpace=wrap;html=1;fillColor=#ffe6cc;strokeColor=#d79b00;" vertex="1" parent="1">
          <mxGeometry x="99.5" y="555" width="390" height="140" as="geometry" />
        </mxCell>
        <mxCell id="G5pYT-L4DVX6QJ-RwEJ_-87" value="&lt;h3&gt;Switch 3048 (1U)&lt;/h3&gt;" style="rounded=0;whiteSpace=wrap;html=1;fillColor=#dae8fc;strokeColor=#6c8ebf;" vertex="1" parent="1">
          <mxGeometry x="99.5" y="365" width="390" height="30" as="geometry" />
        </mxCell>
        <mxCell id="G5pYT-L4DVX6QJ-RwEJ_-88" value="&lt;h2&gt;Tipo 1 de Rack&lt;/h2&gt;" style="rounded=0;whiteSpace=wrap;html=1;fillColor=none;strokeColor=none;" vertex="1" parent="1">
          <mxGeometry x="49.5" y="305" width="250" height="70" as="geometry" />
        </mxCell>
        <mxCell id="G5pYT-L4DVX6QJ-RwEJ_-90" value="&lt;h3&gt;Servidores&amp;nbsp;HPE (1U * 16)&lt;/h3&gt;" style="rounded=0;whiteSpace=wrap;html=1;fillColor=#f8cecc;strokeColor=#b85450;" vertex="1" parent="1">
          <mxGeometry x="99.5" y="705" width="390" height="210" as="geometry" />
        </mxCell>
        <mxCell id="G5pYT-L4DVX6QJ-RwEJ_-91" value="&lt;h3&gt;5U Libres&lt;/h3&gt;" style="rounded=0;whiteSpace=wrap;html=1;fillColor=#b0e3e6;strokeColor=#0e8088;" vertex="1" parent="1">
          <mxGeometry x="99.5" y="925" width="390" height="30" as="geometry" />
        </mxCell>
        <mxCell id="G5pYT-L4DVX6QJ-RwEJ_-95" value="" style="rounded=0;whiteSpace=wrap;html=1;" vertex="1" parent="1">
          <mxGeometry x="10" y="40" width="790" height="120" as="geometry" />
        </mxCell>
        <mxCell id="G5pYT-L4DVX6QJ-RwEJ_-106" value="" style="rounded=0;whiteSpace=wrap;html=1;fillColor=#f5f5f5;fontColor=#333333;strokeColor=#666666;" vertex="1" parent="1">
          <mxGeometry x="90" y="1700" width="410" height="610" as="geometry" />
        </mxCell>
        <mxCell id="G5pYT-L4DVX6QJ-RwEJ_-107" value="" style="shape=flexArrow;endArrow=classic;startArrow=classic;html=1;rounded=0;" edge="1" parent="1">
          <mxGeometry width="100" height="100" relative="1" as="geometry">
            <mxPoint x="540" y="1705" as="sourcePoint" />
            <mxPoint x="540" y="2305" as="targetPoint" />
          </mxGeometry>
        </mxCell>
        <mxCell id="G5pYT-L4DVX6QJ-RwEJ_-108" value="42 U de alto" style="rounded=0;whiteSpace=wrap;html=1;fillColor=none;strokeColor=none;" vertex="1" parent="1">
          <mxGeometry x="540" y="1910" width="60" height="210" as="geometry" />
        </mxCell>
        <mxCell id="G5pYT-L4DVX6QJ-RwEJ_-116" value="" style="rounded=0;whiteSpace=wrap;html=1;fillColor=#f5f5f5;fontColor=#333333;strokeColor=#666666;" vertex="1" parent="1">
          <mxGeometry x="89" y="1010" width="410" height="610" as="geometry" />
        </mxCell>
        <mxCell id="G5pYT-L4DVX6QJ-RwEJ_-117" value="" style="shape=flexArrow;endArrow=classic;startArrow=classic;html=1;rounded=0;" edge="1" parent="1">
          <mxGeometry width="100" height="100" relative="1" as="geometry">
            <mxPoint x="539" y="1015" as="sourcePoint" />
            <mxPoint x="539" y="1615" as="targetPoint" />
          </mxGeometry>
        </mxCell>
        <mxCell id="G5pYT-L4DVX6QJ-RwEJ_-121" value="&lt;h3&gt;Switch 3048 (1U)&lt;/h3&gt;" style="rounded=0;whiteSpace=wrap;html=1;fillColor=#dae8fc;strokeColor=#6c8ebf;" vertex="1" parent="1">
          <mxGeometry x="99" y="1020" width="390" height="30" as="geometry" />
        </mxCell>
        <mxCell id="G5pYT-L4DVX6QJ-RwEJ_-122" value="&lt;h2&gt;Tipo 2 de Rack&lt;/h2&gt;" style="rounded=0;whiteSpace=wrap;html=1;fillColor=none;strokeColor=none;" vertex="1" parent="1">
          <mxGeometry x="39" y="965" width="250" height="70" as="geometry" />
        </mxCell>
        <mxCell id="G5pYT-L4DVX6QJ-RwEJ_-124" value="&lt;h3&gt;Servidores&amp;nbsp;HPE (1U * 22)&lt;/h3&gt;" style="rounded=0;whiteSpace=wrap;html=1;fillColor=#f8cecc;strokeColor=#b85450;" vertex="1" parent="1">
          <mxGeometry x="99" y="1330" width="390" height="240" as="geometry" />
        </mxCell>
        <mxCell id="G5pYT-L4DVX6QJ-RwEJ_-125" value="&lt;h3&gt;9U Libres&lt;/h3&gt;" style="rounded=0;whiteSpace=wrap;html=1;fillColor=#b0e3e6;strokeColor=#0e8088;" vertex="1" parent="1">
          <mxGeometry x="100" y="2230" width="390" height="70" as="geometry" />
        </mxCell>
        <mxCell id="G5pYT-L4DVX6QJ-RwEJ_-126" value="&lt;h3&gt;Switch 9316D-GX (1U)&lt;/h3&gt;" style="rounded=0;whiteSpace=wrap;html=1;fillColor=#bac8d3;strokeColor=#23445d;" vertex="1" parent="1">
          <mxGeometry x="99" y="1060" width="390" height="30" as="geometry" />
        </mxCell>
        <mxCell id="G5pYT-L4DVX6QJ-RwEJ_-132" value="&lt;h3&gt;Routers C8300-1N1S-6T (1U)&lt;/h3&gt;" style="rounded=0;whiteSpace=wrap;html=1;fillColor=#d5e8d4;strokeColor=#82b366;" vertex="1" parent="1">
          <mxGeometry x="99" y="1100" width="390" height="30" as="geometry" />
        </mxCell>
        <mxCell id="G5pYT-L4DVX6QJ-RwEJ_-133" value="&lt;h3&gt;FW ASA 5516-X (1U)&lt;/h3&gt;" style="rounded=0;whiteSpace=wrap;html=1;fillColor=#e1d5e7;strokeColor=#9673a6;" vertex="1" parent="1">
          <mxGeometry x="99" y="1140" width="390" height="30" as="geometry" />
        </mxCell>
        <mxCell id="G5pYT-L4DVX6QJ-RwEJ_-134" value="&lt;h3&gt;Switch MDS 9132T (1U)&lt;/h3&gt;" style="rounded=0;whiteSpace=wrap;html=1;fillColor=#bac8d3;strokeColor=#23445d;" vertex="1" parent="1">
          <mxGeometry x="100" y="1710" width="390" height="30" as="geometry" />
        </mxCell>
        <mxCell id="G5pYT-L4DVX6QJ-RwEJ_-135" value="&lt;h3&gt;HPE 3PAR 9450 (8U)&lt;/h3&gt;" style="rounded=0;whiteSpace=wrap;html=1;fillColor=#76608a;strokeColor=#432D57;fontColor=#ffffff;" vertex="1" parent="1">
          <mxGeometry x="99" y="1750" width="390" height="100" as="geometry" />
        </mxCell>
        <mxCell id="G5pYT-L4DVX6QJ-RwEJ_-136" value="&lt;h3&gt;Drive Enclosure Q0E95A (2U * 12)&lt;/h3&gt;" style="rounded=0;whiteSpace=wrap;html=1;fillColor=#d0cee2;strokeColor=#56517e;" vertex="1" parent="1">
          <mxGeometry x="100" y="1860" width="390" height="360" as="geometry" />
        </mxCell>
        <mxCell id="G5pYT-L4DVX6QJ-RwEJ_-137" value="" style="rounded=0;whiteSpace=wrap;html=1;fillColor=#f5f5f5;fontColor=#333333;strokeColor=#666666;" vertex="1" parent="1">
          <mxGeometry x="88" y="2380" width="410" height="610" as="geometry" />
        </mxCell>
        <mxCell id="G5pYT-L4DVX6QJ-RwEJ_-138" value="" style="shape=flexArrow;endArrow=classic;startArrow=classic;html=1;rounded=0;" edge="1" parent="1">
          <mxGeometry width="100" height="100" relative="1" as="geometry">
            <mxPoint x="538" y="2385" as="sourcePoint" />
            <mxPoint x="538" y="2985" as="targetPoint" />
          </mxGeometry>
        </mxCell>
        <mxCell id="G5pYT-L4DVX6QJ-RwEJ_-139" value="42 U de alto" style="rounded=0;whiteSpace=wrap;html=1;fillColor=none;strokeColor=none;" vertex="1" parent="1">
          <mxGeometry x="550" y="2580" width="60" height="210" as="geometry" />
        </mxCell>
        <mxCell id="G5pYT-L4DVX6QJ-RwEJ_-141" value="&lt;h3&gt;10U Libres&lt;/h3&gt;" style="rounded=0;whiteSpace=wrap;html=1;fillColor=#b0e3e6;strokeColor=#0e8088;" vertex="1" parent="1">
          <mxGeometry x="98" y="2900" width="390" height="80" as="geometry" />
        </mxCell>
        <mxCell id="G5pYT-L4DVX6QJ-RwEJ_-144" value="&lt;h3&gt;Drive Enclosure Q0E95A (2U * 16)&lt;/h3&gt;" style="rounded=0;whiteSpace=wrap;html=1;fillColor=#d0cee2;strokeColor=#56517e;" vertex="1" parent="1">
          <mxGeometry x="98" y="2390" width="390" height="500" as="geometry" />
        </mxCell>
        <mxCell id="G5pYT-L4DVX6QJ-RwEJ_-145" value="&lt;h2&gt;Tipo 4 de Rack&lt;/h2&gt;" style="rounded=0;whiteSpace=wrap;html=1;fillColor=none;strokeColor=none;" vertex="1" parent="1">
          <mxGeometry x="39" y="2330" width="250" height="70" as="geometry" />
        </mxCell>
        <mxCell id="G5pYT-L4DVX6QJ-RwEJ_-146" value="&lt;h3&gt;6U Libres&lt;/h3&gt;" style="rounded=0;whiteSpace=wrap;html=1;fillColor=#b0e3e6;strokeColor=#0e8088;" vertex="1" parent="1">
          <mxGeometry x="99" y="1580" width="390" height="33" as="geometry" />
        </mxCell>
        <mxCell id="G5pYT-L4DVX6QJ-RwEJ_-149" value="&lt;h3&gt;Rack&lt;br&gt;Tipo 3&lt;/h3&gt;" style="rounded=0;whiteSpace=wrap;html=1;fillColor=#fad9d5;strokeColor=#ae4132;" vertex="1" parent="1">
          <mxGeometry x="10" y="40" width="70" height="120" as="geometry" />
        </mxCell>
        <mxCell id="G5pYT-L4DVX6QJ-RwEJ_-150" value="&lt;h3&gt;Rack&lt;br&gt;TIpo 2&lt;/h3&gt;" style="rounded=0;whiteSpace=wrap;html=1;fillColor=#d5e8d4;strokeColor=#82b366;" vertex="1" parent="1">
          <mxGeometry x="260" y="40" width="70" height="120" as="geometry" />
        </mxCell>
        <mxCell id="G5pYT-L4DVX6QJ-RwEJ_-152" value="&lt;h3&gt;Rack&lt;br&gt;Tipo 1&lt;/h3&gt;" style="rounded=0;whiteSpace=wrap;html=1;fillColor=#b1ddf0;strokeColor=#10739e;" vertex="1" parent="1">
          <mxGeometry x="80" y="40" width="70" height="120" as="geometry" />
        </mxCell>
        <mxCell id="G5pYT-L4DVX6QJ-RwEJ_-154" value="&lt;h3&gt;Rack&lt;/h3&gt;&lt;h3&gt;Libre&lt;/h3&gt;" style="rounded=0;whiteSpace=wrap;html=1;fillColor=#d0cee2;strokeColor=#56517e;" vertex="1" parent="1">
          <mxGeometry x="730" y="40" width="70" height="120" as="geometry" />
        </mxCell>
        <mxCell id="G5pYT-L4DVX6QJ-RwEJ_-165" value="&lt;h2&gt;Tipo 3 de Rack&lt;/h2&gt;" style="rounded=0;whiteSpace=wrap;html=1;fillColor=none;strokeColor=none;" vertex="1" parent="1">
          <mxGeometry x="49" y="1650" width="250" height="70" as="geometry" />
        </mxCell>
        <mxCell id="G5pYT-L4DVX6QJ-RwEJ_-175" value="&lt;h1&gt;Chasis (10U)&lt;/h1&gt;" style="rounded=0;whiteSpace=wrap;html=1;fillColor=#ffe6cc;strokeColor=#d79b00;" vertex="1" parent="1">
          <mxGeometry x="99" y="1180" width="390" height="140" as="geometry" />
        </mxCell>
        <mxCell id="G5pYT-L4DVX6QJ-RwEJ_-185" value="&lt;h3&gt;Rack&lt;br&gt;Tipo 1&lt;/h3&gt;" style="rounded=0;whiteSpace=wrap;html=1;fillColor=#b1ddf0;strokeColor=#10739e;" vertex="1" parent="1">
          <mxGeometry x="190" y="40" width="70" height="120" as="geometry" />
        </mxCell>
        <mxCell id="G5pYT-L4DVX6QJ-RwEJ_-189" value="&lt;h3&gt;Rack&lt;br&gt;Tipo 1&lt;/h3&gt;" style="rounded=0;whiteSpace=wrap;html=1;fillColor=#b1ddf0;strokeColor=#10739e;" vertex="1" parent="1">
          <mxGeometry x="370" y="40" width="70" height="120" as="geometry" />
        </mxCell>
        <mxCell id="G5pYT-L4DVX6QJ-RwEJ_-191" value="&lt;h3&gt;Rack&lt;br&gt;Tipo 1&lt;/h3&gt;" style="rounded=0;whiteSpace=wrap;html=1;fillColor=#b1ddf0;strokeColor=#10739e;" vertex="1" parent="1">
          <mxGeometry x="440" y="40" width="70" height="120" as="geometry" />
        </mxCell>
        <mxCell id="G5pYT-L4DVX6QJ-RwEJ_-193" value="&lt;h3&gt;Rack&lt;br&gt;Tipo 1&lt;/h3&gt;" style="rounded=0;whiteSpace=wrap;html=1;fillColor=#b1ddf0;strokeColor=#10739e;fontStyle=1" vertex="1" parent="1">
          <mxGeometry x="550" y="40" width="70" height="120" as="geometry" />
        </mxCell>
        <mxCell id="G5pYT-L4DVX6QJ-RwEJ_-195" value="&lt;h3&gt;Rack&lt;br&gt;Tipo 1&lt;/h3&gt;" style="rounded=0;whiteSpace=wrap;html=1;fillColor=#b1ddf0;strokeColor=#10739e;" vertex="1" parent="1">
          <mxGeometry x="620" y="40" width="70" height="120" as="geometry" />
        </mxCell>
        <mxCell id="G5pYT-L4DVX6QJ-RwEJ_-197" value="42 U de alto" style="rounded=0;whiteSpace=wrap;html=1;fillColor=none;strokeColor=none;" vertex="1" parent="1">
          <mxGeometry x="539" y="1210" width="60" height="210" as="geometry" />
        </mxCell>
        <mxCell id="G5pYT-L4DVX6QJ-RwEJ_-203" value="" style="rounded=0;whiteSpace=wrap;html=1;" vertex="1" parent="1">
          <mxGeometry x="10" y="180" width="790" height="120" as="geometry" />
        </mxCell>
        <mxCell id="G5pYT-L4DVX6QJ-RwEJ_-204" value="&lt;h3&gt;Rack&lt;br&gt;Tipo 3&lt;/h3&gt;" style="rounded=0;whiteSpace=wrap;html=1;fillColor=#fad9d5;strokeColor=#ae4132;" vertex="1" parent="1">
          <mxGeometry x="10" y="180" width="70" height="120" as="geometry" />
        </mxCell>
        <mxCell id="G5pYT-L4DVX6QJ-RwEJ_-205" value="&lt;h3&gt;Rack&lt;br&gt;TIpo 2&lt;/h3&gt;" style="rounded=0;whiteSpace=wrap;html=1;fillColor=#d5e8d4;strokeColor=#82b366;" vertex="1" parent="1">
          <mxGeometry x="260" y="180" width="70" height="120" as="geometry" />
        </mxCell>
        <mxCell id="G5pYT-L4DVX6QJ-RwEJ_-207" value="&lt;h3&gt;Rack&lt;/h3&gt;&lt;h3&gt;Libre&lt;/h3&gt;" style="rounded=0;whiteSpace=wrap;html=1;fillColor=#d0cee2;strokeColor=#56517e;" vertex="1" parent="1">
          <mxGeometry x="730" y="180" width="70" height="120" as="geometry" />
        </mxCell>
        <mxCell id="G5pYT-L4DVX6QJ-RwEJ_-208" value="&lt;h3&gt;Rack&lt;br&gt;Tipo 1&lt;/h3&gt;" style="rounded=0;whiteSpace=wrap;html=1;fillColor=#b1ddf0;strokeColor=#10739e;" vertex="1" parent="1">
          <mxGeometry x="190" y="180" width="70" height="120" as="geometry" />
        </mxCell>
        <mxCell id="G5pYT-L4DVX6QJ-RwEJ_-209" value="&lt;h3&gt;Rack&lt;br&gt;Tipo 1&lt;/h3&gt;" style="rounded=0;whiteSpace=wrap;html=1;fillColor=#b1ddf0;strokeColor=#10739e;" vertex="1" parent="1">
          <mxGeometry x="370" y="180" width="70" height="120" as="geometry" />
        </mxCell>
        <mxCell id="G5pYT-L4DVX6QJ-RwEJ_-210" value="&lt;h3&gt;Rack&lt;br&gt;Tipo 1&lt;/h3&gt;" style="rounded=0;whiteSpace=wrap;html=1;fillColor=#b1ddf0;strokeColor=#10739e;" vertex="1" parent="1">
          <mxGeometry x="440" y="180" width="70" height="120" as="geometry" />
        </mxCell>
        <mxCell id="G5pYT-L4DVX6QJ-RwEJ_-211" value="&lt;h3&gt;Rack&lt;br&gt;Tipo 1&lt;/h3&gt;" style="rounded=0;whiteSpace=wrap;html=1;fillColor=#b1ddf0;strokeColor=#10739e;fontStyle=1" vertex="1" parent="1">
          <mxGeometry x="550" y="180" width="70" height="120" as="geometry" />
        </mxCell>
        <mxCell id="G5pYT-L4DVX6QJ-RwEJ_-212" value="&lt;h3&gt;Rack&lt;br&gt;Tipo 1&lt;/h3&gt;" style="rounded=0;whiteSpace=wrap;html=1;fillColor=#b1ddf0;strokeColor=#10739e;" vertex="1" parent="1">
          <mxGeometry x="620" y="180" width="70" height="120" as="geometry" />
        </mxCell>
        <mxCell id="G5pYT-L4DVX6QJ-RwEJ_-159" value="&lt;h3&gt;Rack&lt;br&gt;Tipo 4&lt;/h3&gt;" style="rounded=0;whiteSpace=wrap;html=1;fillColor=#f8cecc;strokeColor=#b85450;gradientColor=#ea6b66;" vertex="1" parent="1">
          <mxGeometry x="80" y="180" width="70" height="120" as="geometry" />
        </mxCell>
      </root>
    </mxGraphModel>
  </diagram>
</mxfile>
